<svg width="138" height="79" viewBox="0 0 138 79" fill="none" xmlns="http://www.w3.org/2000/svg">
<path d="M83.5 0H43C48 3.33333 59.3333 0 57 17.5C56 25 49 33.5 40 36.5C46.5 36.5 54.5 46.5 49 61C44.6 72.6 26.1667 77.8333 17.5 79H60.5L81 55.5L91.5 79H119.5L101 39.5L137.5 0H111L91.5 21L83.5 0Z" fill="white"/>
<path d="M23 29.5H9L13 15H27C28.8333 15.8333 32.5 17.5 30.5 24C28.9 29.2 24.8333 29.8333 23 29.5Z" fill="white"/>
<path d="M18.5 61H0.5L4.5 45.5H22.5C24.3333 46.3333 29.5 47.5 26 55.5C23.8193 60.4844 20.3333 61.3333 18.5 61Z" fill="white"/>
</svg>
