<svg width="21" height="18" viewBox="0 0 21 18" fill="none" xmlns="http://www.w3.org/2000/svg">
<path fill-rule="evenodd" clip-rule="evenodd" d="M13.3187 2.00015C12.8618 1.99996 12.4106 2.10121 11.9977 2.29657C11.5847 2.49194 11.2203 2.77655 10.9307 3.12987C10.6411 3.48319 10.4335 3.8964 10.323 4.33968C10.2125 4.78296 10.2018 5.24524 10.2917 5.69315C10.3226 5.84835 10.3163 6.00868 10.2732 6.16095C10.2301 6.31322 10.1515 6.45309 10.0438 6.56907C9.93612 6.68504 9.80246 6.7738 9.6538 6.82805C9.50514 6.88231 9.34573 6.90051 9.18866 6.88115C7.0384 6.61701 5.01139 5.73311 3.35467 4.33715C3.38567 4.93915 3.59466 5.57915 4.04766 6.24915L4.72666 7.25315L3.61167 7.72815L3.39666 7.82015C3.55666 8.00315 3.74866 8.19015 3.96366 8.37515C4.25108 8.62116 4.55514 8.84703 4.87366 9.05115L4.88466 9.05815H4.88566L6.43366 9.99715L4.81366 10.8072C4.73366 10.8472 4.65366 10.8832 4.57366 10.9152C4.922 11.2046 5.30575 11.4486 5.71566 11.6412L7.10566 12.2982L5.94166 13.3022C5.30666 13.8502 4.66766 14.2592 3.83866 14.4752C5.1101 15.1524 6.52911 15.5052 7.96966 15.5022C12.7757 15.5022 16.6457 11.6672 16.6457 6.96815V6.44815L17.0707 6.14915C17.7347 5.68315 18.2037 5.05315 18.5397 4.33215H16.3797L16.1077 3.76215C15.8572 3.23482 15.4623 2.78935 14.9688 2.47747C14.4753 2.16558 13.9035 2.00007 13.3197 2.00015H13.3187ZM2.03866 9.30015C1.9443 9.40822 1.87429 9.53533 1.8334 9.67285C1.79251 9.81037 1.78168 9.95508 1.80166 10.0972C1.91466 10.8982 2.39366 11.5882 2.92366 12.1152C3.06766 12.2582 3.22166 12.3952 3.38366 12.5262L3.30867 12.5462C2.82767 12.6662 2.17866 12.6912 1.09766 12.5862C0.893524 12.5661 0.688161 12.6094 0.509419 12.71C0.330678 12.8106 0.187204 12.9638 0.0984528 13.1487C0.00970113 13.3336 -0.0200355 13.5414 0.0132746 13.7438C0.0465846 13.9462 0.14133 14.1334 0.284665 14.2802C1.28544 15.3031 2.48096 16.1152 3.80069 16.6686C5.12042 17.2219 6.53761 17.5054 7.96866 17.5022C13.6817 17.5022 18.3677 13.0662 18.6327 7.46815C19.9227 6.38515 20.5677 4.91815 20.9157 3.58515C20.9544 3.43721 20.9586 3.28235 20.9281 3.13251C20.8975 2.98266 20.833 2.84181 20.7396 2.7208C20.6461 2.59978 20.5261 2.50182 20.3888 2.43444C20.2515 2.36707 20.1006 2.33207 19.9477 2.33215H17.5947C17.0191 1.43848 16.178 0.747595 15.1896 0.356587C14.2011 -0.0344197 13.115 -0.105897 12.0838 0.152199C11.0526 0.410294 10.1283 0.984991 9.44055 1.79553C8.75284 2.60607 8.33637 3.61172 8.24966 4.67115C6.40632 4.1913 4.757 3.15196 3.52866 1.69615C3.41988 1.56754 3.28037 1.46848 3.12308 1.40819C2.96579 1.34789 2.79582 1.3283 2.62894 1.35124C2.46206 1.37419 2.30367 1.43891 2.16849 1.53942C2.03331 1.63993 1.9257 1.77295 1.85566 1.92615C1.24966 3.24815 1.13366 4.77215 1.80966 6.32215L1.57566 6.42215C1.35174 6.51757 1.1703 6.69138 1.06537 6.91101C0.960433 7.13064 0.939206 7.381 1.00566 7.61515C1.19166 8.26715 1.60966 8.84315 2.03766 9.30015H2.03866Z" fill="black"/>
</svg>
