<svg width="22" height="21" viewBox="0 0 22 21" fill="none" xmlns="http://www.w3.org/2000/svg">
<path fill-rule="evenodd" clip-rule="evenodd" d="M2.50042 10.5C2.50042 8.81886 2.99893 7.17547 3.93293 5.77765C4.86692 4.37984 6.19444 3.29037 7.74761 2.64702C9.30078 2.00368 11.0098 1.83535 12.6587 2.16333C14.3075 2.4913 15.8221 3.30085 17.0108 4.48959C18.1996 5.67834 19.0091 7.19289 19.3371 8.84173C19.6651 10.4906 19.4967 12.1996 18.8534 13.7528C18.21 15.306 17.1206 16.6335 15.7228 17.5675C14.3249 18.5015 12.6816 19 11.0004 19C9.39226 19.0029 7.81665 18.547 6.45842 17.686C6.3376 17.6096 6.2018 17.5599 6.06017 17.5404C5.91855 17.521 5.77439 17.5321 5.63742 17.573L2.75742 18.432L3.84242 15.895C3.90548 15.7473 3.93205 15.5866 3.91986 15.4264C3.90768 15.2663 3.8571 15.1115 3.77242 14.975C2.93835 13.6316 2.49767 12.0813 2.50042 10.5V10.5ZM11.0004 0C5.20142 0 0.500417 4.701 0.500417 10.5C0.500417 12.338 0.973417 14.068 1.80542 15.573L0.0804171 19.607C0.00575691 19.7817 -0.0175686 19.9741 0.0131725 20.1617C0.0439136 20.3492 0.127449 20.5241 0.253994 20.6658C0.38054 20.8076 0.544857 20.9104 0.727703 20.9621C0.910548 21.0139 1.10435 21.0124 1.28642 20.958L5.78642 19.616C7.37344 20.5255 9.17128 21.0027 11.0004 21C16.7994 21 21.5004 16.299 21.5004 10.5C21.5004 4.701 16.7994 0 11.0004 0ZM13.2934 12.682L11.9784 13.608C11.2539 13.1912 10.5886 12.6789 10.0004 12.085C9.36895 11.4544 8.82296 10.7437 8.37642 9.971L9.21142 9.262C9.38541 9.11438 9.50368 8.9117 9.54661 8.6876C9.58954 8.46351 9.55454 8.23147 9.44742 8.03L8.38342 6.03C8.31261 5.89718 8.21274 5.78205 8.09124 5.6932C7.96974 5.60436 7.82975 5.54408 7.68171 5.51688C7.53367 5.48967 7.3814 5.49624 7.23625 5.53608C7.0911 5.57593 6.95682 5.64803 6.84342 5.747L6.52742 6.022C5.76842 6.684 5.31942 7.772 5.69142 8.874C6.28992 10.6171 7.28032 12.1997 8.58642 13.5C10.3994 15.313 12.2414 16.027 13.3194 16.305C14.1874 16.528 15.0084 16.229 15.5874 15.757L16.1784 15.275C16.303 15.1734 16.4013 15.0432 16.4649 14.8956C16.5285 14.7479 16.5555 14.5871 16.5438 14.4268C16.532 14.2664 16.4817 14.1113 16.3972 13.9745C16.3127 13.8377 16.1965 13.7233 16.0584 13.641L14.3804 12.641C14.2145 12.542 14.0234 12.4932 13.8303 12.5004C13.6373 12.5077 13.4504 12.5708 13.2924 12.682H13.2934Z" fill="black"/>
</svg>
